<svg width="322" height="104" viewBox="0 0 322 104" fill="none" xmlns="http://www.w3.org/2000/svg">
<path d="M69.252 93.3169C69.2743 96.4919 72.2622 99.0609 75.9463 99.061C79.6223 99.0609 82.6052 96.5037 82.6406 93.3384C82.6402 93.3208 82.6397 93.3023 82.6396 93.2847C82.64 91.921 83.9208 90.816 85.501 90.8159C87.08 90.816 88.3601 91.9195 88.3623 93.2817H88.3662C88.3661 99.2011 82.8051 104 75.9463 104L75.626 103.997C68.9151 103.85 63.5275 99.1087 63.5273 93.2817L63.5312 72.5278H69.252V93.3169ZM132.931 54.0806V62.186C132.931 62.186 126.261 63.6424 113.99 65.0444V54.0796L69.5957 14.8716L94.0762 54.0796V66.7681C88.6885 67.0962 82.793 67.3484 76.4229 67.4819V54.0796L66.4658 17.5737L56.5078 54.0796V67.4819C50.093 67.3474 44.1595 67.0927 38.7412 66.7612V54.0796L63.2217 14.8716L18.8271 54.0796V65.0317C6.64807 63.6359 0.0208066 62.1906 0 62.186V54.0806L66.4648 7.27881L132.931 54.0806Z" fill="white"/>
<path d="M307.009 65.4592L306.961 59.6367C306.961 56.2626 306.61 54.0232 305.909 52.9184C305.207 51.7838 304.474 50.9627 303.708 50.4551C302.943 49.9176 302.003 49.3801 300.887 48.8427H321.883C319.874 50.5745 318.599 52.7841 318.057 55.4714C317.547 58.0392 317.292 62.0105 317.292 67.3851C317.292 77.8357 317.961 84.7929 319.301 88.2565C318.854 88.2864 318.408 88.3013 317.961 88.3013H316.67C302.64 88.3013 292.006 84.0763 284.768 75.6262C277.849 67.5344 274.39 56.0536 274.39 41.1839C274.39 33.8385 276.701 28.2101 281.325 24.2986C285.597 20.6558 291.321 18.8344 298.495 18.8344L306.913 18.924C311.345 18.924 314.438 18.4164 316.192 17.4012C316.925 16.9533 317.547 16.386 318.057 15.6992C318.854 17.1324 319.253 19.1031 319.253 21.6113C319.253 24.1194 319.173 26.1499 319.014 27.7025C318.854 29.2253 318.615 30.7183 318.296 32.1814C317.627 35.2867 316.59 37.7053 315.187 39.4371C313.976 33.4653 312.461 29.3448 310.644 27.0755C308.603 24.5673 305.414 23.3133 301.078 23.3133C295.594 23.3133 291.719 25.3735 289.456 29.4941C287.829 32.5098 287.016 37.0782 287.016 43.1993C287.016 51.5897 288.403 59.6367 291.177 67.3403C293.122 72.7448 295.546 76.5817 298.447 78.851C299.946 80.0453 301.492 80.6425 303.087 80.6425C304.713 80.6425 305.749 80.2095 306.196 79.3436C306.642 78.4777 306.881 76.9997 306.913 74.9096C306.977 70.789 307.009 67.6389 307.009 65.4592Z" fill="white"/>
<path d="M220.294 38.9895C219.529 37.2577 219.146 35.2124 219.146 32.8535C219.146 30.4946 219.242 28.5687 219.433 27.0758C219.625 25.553 219.88 24.1795 220.199 22.9553C220.964 20.2082 221.905 18.8347 223.021 18.8347H265.157C267.007 18.8347 268.25 21.4026 268.888 26.5383C269.047 27.9716 269.127 29.4496 269.127 30.9724C269.127 34.5555 268.713 37.2278 267.884 38.9895C265.141 31.0172 261.586 25.9113 257.218 23.6719C256.229 23.1344 255.257 22.8657 254.3 22.8657C253.344 22.8657 252.594 23.1046 252.052 23.5823C251.51 24.0302 251.064 24.7617 250.713 25.7769C250.139 27.5685 249.852 29.7183 249.852 32.2265V49.0221L249.9 62.7274V75.7161C249.9 78.6422 250.299 80.807 251.096 82.2104C251.925 83.5839 252.754 84.629 253.583 85.3456C254.444 86.0622 255.448 86.734 256.596 87.3611H232.156C234.452 85.5994 235.918 84.1512 236.556 83.0166C237.736 80.9563 238.326 78.5228 238.326 75.7161V35.3617C238.326 30.6738 238.134 27.658 237.752 26.3144C237.369 24.9409 236.907 24.0302 236.365 23.5823C235.823 23.1046 235.073 22.8657 234.117 22.8657C233.16 22.8657 232.188 23.1344 231.199 23.6719C230.211 24.1795 229.238 24.8662 228.282 25.7321C227.357 26.5682 226.464 27.5535 225.603 28.6882C224.774 29.793 224.009 30.9425 223.308 32.1369C221.936 34.4958 220.932 36.78 220.294 38.9895Z" fill="white"/>
<path d="M213.695 28.6434C213.695 33.6597 209.773 37.7802 201.929 41.005C208.434 42.1397 212.674 44.9016 214.651 49.2909C215.289 50.754 215.608 52.6948 215.608 55.1134C215.608 57.5021 215.225 60.0998 214.46 62.9066C213.727 65.6835 212.547 68.311 210.921 70.7893C209.326 73.2378 207.286 75.4772 204.799 77.5076C202.312 79.538 199.33 81.2848 195.855 82.7479C188.553 85.8233 179.529 87.3611 168.784 87.3611C169.804 85.0918 170.394 83.1957 170.554 81.6729C170.745 80.1501 170.904 78.5228 171.032 76.791C171.287 73.2676 171.414 68.535 171.414 62.593C171.414 55.397 171.287 48.8281 171.032 42.8861L170.506 30.5693C170.378 27.464 170.091 25.2992 169.645 24.075C168.943 22.1341 167.795 20.3874 166.201 18.8347H191.502C199.219 18.8347 204.799 19.5513 208.242 20.9846C211.877 22.4775 213.695 25.0305 213.695 28.6434ZM182.558 51.8438L182.606 74.5964C182.606 76.2983 182.798 77.5823 183.18 78.4482C183.595 79.3141 184.408 79.747 185.62 79.747C190.53 79.747 194.627 77.5673 197.911 73.2079C201.291 68.7291 202.981 62.9066 202.981 55.7404C202.981 52.1872 202.136 49.5447 200.446 47.8129C198.214 45.5137 194.213 44.3641 188.441 44.3641C187.134 44.3641 186.098 44.4239 185.333 44.5433C184.567 44.6329 183.977 44.9165 183.563 45.3943C182.893 46.1706 182.558 48.3205 182.558 51.8438ZM198.342 36.3022C199.33 35.4065 200.032 34.451 200.446 33.4358C200.861 32.4206 201.068 31.48 201.068 30.6141C201.068 29.7183 200.925 28.8225 200.638 27.9268C200.383 27.031 199.856 26.2397 199.059 25.553C197.274 24.06 194.213 23.3136 189.876 23.3136C186.592 23.3136 184.631 23.6271 183.993 24.2541C183.356 24.8513 182.957 25.6575 182.798 26.6727C182.638 27.6879 182.558 29.0017 182.558 30.6141C182.558 32.1966 182.606 33.5253 182.702 34.6003C182.798 35.6453 183.053 36.5262 183.467 37.2428C184.264 38.7059 185.891 39.4374 188.346 39.4374C190.833 39.4374 192.873 39.1388 194.468 38.5416C196.094 37.9445 197.385 37.198 198.342 36.3022Z" fill="white"/>
</svg>
