<svg width="134" height="104" viewBox="0 0 134 104" fill="none" xmlns="http://www.w3.org/2000/svg">
<path d="M69.252 93.3169C69.2743 96.4919 72.2622 99.0609 75.9463 99.061C79.6223 99.0609 82.6052 96.5037 82.6406 93.3384C82.6402 93.3208 82.6397 93.3023 82.6396 93.2847C82.64 91.921 83.9208 90.816 85.501 90.8159C87.08 90.816 88.3601 91.9195 88.3623 93.2817H88.3662C88.3661 99.2011 82.8051 104 75.9463 104L75.626 103.997C68.9151 103.85 63.5275 99.1087 63.5273 93.2817L63.5312 72.5278H69.252V93.3169ZM132.931 54.0806V62.186C132.931 62.186 126.261 63.6424 113.99 65.0444V54.0796L69.5957 14.8716L94.0762 54.0796V66.7681C88.6885 67.0962 82.793 67.3484 76.4229 67.4819V54.0796L66.4658 17.5737L56.5078 54.0796V67.4819C50.093 67.3474 44.1595 67.0927 38.7412 66.7612V54.0796L63.2217 14.8716L18.8271 54.0796V65.0317C6.64807 63.6359 0.0208066 62.1906 0 62.186V54.0806L66.4648 7.27881L132.931 54.0806Z" fill="white"/>
</svg>
